<svg id="Layer_1" data-name="Layer 1" xmlns="http://www.w3.org/2000/svg" xmlns:xlink="http://www.w3.org/1999/xlink" viewBox="0 0 73.33 73.33"><defs><style>.cls-1,.cls-2,.cls-3,.cls-77,.cls-79,.cls-85{fill:none;}.cls-2{clip-rule:evenodd;}.cls-3{fill-rule:evenodd;}.cls-4{clip-path:url(#clip-path);}.cls-5{clip-path:url(#clip-path-2);}.cls-6{clip-path:url(#clip-path-3);}.cls-7{clip-path:url(#clip-path-4);}.cls-8{clip-path:url(#clip-path-5);}.cls-9{clip-path:url(#clip-path-6);}.cls-10{clip-path:url(#clip-path-7);}.cls-11{clip-path:url(#clip-path-8);}.cls-12{clip-path:url(#clip-path-9);}.cls-13{clip-path:url(#clip-path-10);}.cls-14{clip-path:url(#clip-path-11);}.cls-15{clip-path:url(#clip-path-12);}.cls-16{clip-path:url(#clip-path-13);}.cls-17{clip-path:url(#clip-path-14);}.cls-18{clip-path:url(#clip-path-15);}.cls-19{clip-path:url(#clip-path-16);}.cls-20{clip-path:url(#clip-path-17);}.cls-21{clip-path:url(#clip-path-18);}.cls-22{clip-path:url(#clip-path-19);}.cls-23{clip-path:url(#clip-path-20);}.cls-24{clip-path:url(#clip-path-21);}.cls-25{clip-path:url(#clip-path-22);}.cls-26{clip-path:url(#clip-path-23);}.cls-27{clip-path:url(#clip-path-24);}.cls-28{clip-path:url(#clip-path-25);}.cls-29{clip-path:url(#clip-path-26);}.cls-30{clip-path:url(#clip-path-27);}.cls-31{clip-path:url(#clip-path-28);}.cls-32{clip-path:url(#clip-path-29);}.cls-33{clip-path:url(#clip-path-30);}.cls-34{clip-path:url(#clip-path-31);}.cls-35{clip-path:url(#clip-path-32);}.cls-36{clip-path:url(#clip-path-33);}.cls-37{clip-path:url(#clip-path-34);}.cls-38{clip-path:url(#clip-path-35);}.cls-39{clip-path:url(#clip-path-36);}.cls-40{clip-path:url(#clip-path-37);}.cls-41{clip-path:url(#clip-path-38);}.cls-42{clip-path:url(#clip-path-39);}.cls-43{clip-path:url(#clip-path-40);}.cls-44{clip-path:url(#clip-path-41);}.cls-45{clip-path:url(#clip-path-42);}.cls-46{clip-path:url(#clip-path-43);}.cls-47{clip-path:url(#clip-path-44);}.cls-48{clip-path:url(#clip-path-45);}.cls-49{clip-path:url(#clip-path-46);}.cls-50{clip-path:url(#clip-path-47);}.cls-51{clip-path:url(#clip-path-48);}.cls-52{clip-path:url(#clip-path-49);}.cls-53{clip-path:url(#clip-path-50);}.cls-54{clip-path:url(#clip-path-51);}.cls-55{clip-path:url(#clip-path-52);}.cls-56{clip-path:url(#clip-path-53);}.cls-57{clip-path:url(#clip-path-54);}.cls-58{clip-path:url(#clip-path-55);}.cls-59{clip-path:url(#clip-path-56);}.cls-60{clip-path:url(#clip-path-57);}.cls-61{clip-path:url(#clip-path-59);}.cls-62{clip-path:url(#clip-path-62);}.cls-63{clip-path:url(#clip-path-63);}.cls-64{clip-path:url(#clip-path-64);}.cls-65{clip-path:url(#clip-path-65);}.cls-66{clip-path:url(#clip-path-66);}.cls-67{clip-path:url(#clip-path-67);}.cls-68{clip-path:url(#clip-path-68);}.cls-69{clip-path:url(#clip-path-69);}.cls-70{clip-path:url(#clip-path-70);}.cls-71{clip-path:url(#clip-path-71);}.cls-72{clip-path:url(#clip-path-72);}.cls-73{clip-path:url(#clip-path-73);}.cls-74{clip-path:url(#clip-path-74);}.cls-75{clip-path:url(#clip-path-75);}.cls-76{fill:#fff;}.cls-77,.cls-79{stroke:#4178be;stroke-miterlimit:10;}.cls-77,.cls-79,.cls-85{stroke-width:2px;}.cls-78{clip-path:url(#clip-path-76);}.cls-79{stroke-linecap:square;}.cls-80{clip-path:url(#clip-path-77);}.cls-81{fill:#4178be;}.cls-82{clip-path:url(#clip-path-78);}.cls-83{clip-path:url(#clip-path-79);}.cls-84{clip-path:url(#clip-path-80);}.cls-85{stroke:#fff;stroke-linecap:round;stroke-linejoin:round;}</style><clipPath id="clip-path"><rect class="cls-1" x="-1786.99" y="643.67" width="416.41" height="150.53"/></clipPath><clipPath id="clip-path-2"><circle class="cls-1" cx="-349.84" cy="40.48" r="33.88"/></clipPath><clipPath id="clip-path-3"><path class="cls-2" d="M-337.05,30.89H-362a1.27,1.27,0,0,0-1.28,1.27v24.3l3.72-4.82h21.22a1.28,1.28,0,0,0,1.27-1.27Z"/></clipPath><clipPath id="clip-path-4"><rect class="cls-1" x="-358.15" y="43.67" width="15.98" height="1.28"/></clipPath><clipPath id="clip-path-5"><rect class="cls-1" x="-358.15" y="39.84" width="15.98" height="1.28"/></clipPath><clipPath id="clip-path-6"><rect class="cls-1" x="-358.15" y="36" width="15.98" height="1.28"/></clipPath><clipPath id="clip-path-7"><circle class="cls-1" cx="-337.69" cy="29.61" r="5.11"/></clipPath><clipPath id="clip-path-8"><rect class="cls-1" x="-668.53" y="542.43" width="344.22" height="124.43"/></clipPath><clipPath id="clip-path-9"><rect class="cls-1" x="-547.53" y="568.43" width="94" height="75"/></clipPath><clipPath id="clip-path-10"><rect class="cls-1" x="-547.53" y="568.43" width="94" height="15.52"/></clipPath><clipPath id="clip-path-11"><path class="cls-2" d="M-535.78,576.19a3.9,3.9,0,0,1-3.92,3.88,3.9,3.9,0,0,1-3.92-3.88,3.9,3.9,0,0,1,3.92-3.88,3.9,3.9,0,0,1,3.92,3.88"/></clipPath><clipPath id="clip-path-12"><path class="cls-2" d="M-524,576.19a3.9,3.9,0,0,1-3.92,3.88,3.9,3.9,0,0,1-3.92-3.88,3.9,3.9,0,0,1,3.92-3.88,3.9,3.9,0,0,1,3.92,3.88"/></clipPath><clipPath id="clip-path-13"><path class="cls-2" d="M-512.28,576.19a3.9,3.9,0,0,1-3.92,3.88,3.9,3.9,0,0,1-3.92-3.88,3.9,3.9,0,0,1,3.92-3.88,3.9,3.9,0,0,1,3.92,3.88"/></clipPath><clipPath id="clip-path-14"><rect class="cls-1" x="-547.53" y="583.95" width="9.14" height="59.48"/></clipPath><clipPath id="clip-path-15"><path class="cls-2" d="M-542.3,591.71a1.3,1.3,0,0,0,1.31-1.29,1.3,1.3,0,0,0-1.31-1.29h-1.31a1.3,1.3,0,0,0-1.31,1.29,1.3,1.3,0,0,0,1.31,1.29Z"/></clipPath><clipPath id="clip-path-16"><path class="cls-2" d="M-542.3,594.29h-1.31a1.3,1.3,0,0,0-1.31,1.29,1.3,1.3,0,0,0,1.31,1.29h1.31a1.3,1.3,0,0,0,1.31-1.29,1.3,1.3,0,0,0-1.31-1.29"/></clipPath><clipPath id="clip-path-17"><path class="cls-2" d="M-542.3,599.47h-1.31a1.3,1.3,0,0,0-1.31,1.29,1.3,1.3,0,0,0,1.31,1.29h1.31a1.3,1.3,0,0,0,1.31-1.29,1.3,1.3,0,0,0-1.31-1.29"/></clipPath><clipPath id="clip-path-18"><path class="cls-2" d="M-542.3,604.64h-1.31a1.3,1.3,0,0,0-1.31,1.29,1.3,1.3,0,0,0,1.31,1.29h1.31a1.3,1.3,0,0,0,1.31-1.29,1.3,1.3,0,0,0-1.31-1.29"/></clipPath><clipPath id="clip-path-19"><path class="cls-2" d="M-542.3,609.81h-1.31a1.3,1.3,0,0,0-1.31,1.29,1.3,1.3,0,0,0,1.31,1.29h1.31A1.3,1.3,0,0,0-541,611.1a1.3,1.3,0,0,0-1.31-1.29"/></clipPath><clipPath id="clip-path-20"><path class="cls-2" d="M-542.3,615h-1.31a1.3,1.3,0,0,0-1.31,1.29,1.3,1.3,0,0,0,1.31,1.29h1.31a1.3,1.3,0,0,0,1.31-1.29A1.3,1.3,0,0,0-542.3,615"/></clipPath><clipPath id="clip-path-21"><path class="cls-2" d="M-542.3,620.16h-1.31a1.3,1.3,0,0,0-1.31,1.29,1.3,1.3,0,0,0,1.31,1.29h1.31a1.3,1.3,0,0,0,1.31-1.29,1.3,1.3,0,0,0-1.31-1.29"/></clipPath><clipPath id="clip-path-22"><path class="cls-2" d="M-542.3,625.33h-1.31a1.3,1.3,0,0,0-1.31,1.29,1.3,1.3,0,0,0,1.31,1.29h1.31a1.3,1.3,0,0,0,1.31-1.29,1.3,1.3,0,0,0-1.31-1.29"/></clipPath><clipPath id="clip-path-23"><path class="cls-2" d="M-542.3,630.5h-1.31a1.3,1.3,0,0,0-1.31,1.29,1.3,1.3,0,0,0,1.31,1.29h1.31a1.3,1.3,0,0,0,1.31-1.29,1.3,1.3,0,0,0-1.31-1.29"/></clipPath><clipPath id="clip-path-24"><path class="cls-2" d="M-542.3,635.67h-1.31a1.3,1.3,0,0,0-1.31,1.29,1.3,1.3,0,0,0,1.31,1.29h1.31A1.3,1.3,0,0,0-541,637a1.3,1.3,0,0,0-1.31-1.29"/></clipPath><clipPath id="clip-path-25"><polygon class="cls-2" points="-515.99 628.07 -500.33 628.2 -492.48 614.6 -523.32 614.3 -515.99 628.07"/></clipPath><clipPath id="clip-path-26"><polygon class="cls-2" points="-523.79 614.63 -516.07 628.26 -500.42 628.22 -515.91 600.74 -523.79 614.63"/></clipPath><clipPath id="clip-path-27"><polygon class="cls-2" points="-483.06 596.79 -498.72 596.67 -506.57 610.26 -475.73 610.56 -483.06 596.79"/></clipPath><clipPath id="clip-path-28"><polygon class="cls-2" points="-475.26 610.23 -482.99 596.61 -498.63 596.64 -483.15 624.12 -475.26 610.23"/></clipPath><clipPath id="clip-path-29"><rect class="cls-1" x="-668.83" y="704.39" width="343.72" height="124.63"/></clipPath><clipPath id="clip-path-30"><rect class="cls-1" x="-547.29" y="729.5" width="94.42" height="75.33"/></clipPath><clipPath id="clip-path-31"><rect class="cls-1" x="-547.29" y="729.5" width="94.42" height="15.59"/></clipPath><clipPath id="clip-path-32"><path class="cls-2" d="M-535.48,737.3a3.92,3.92,0,0,1-3.93,3.9,3.92,3.92,0,0,1-3.93-3.9,3.92,3.92,0,0,1,3.93-3.9,3.92,3.92,0,0,1,3.93,3.9"/></clipPath><clipPath id="clip-path-33"><path class="cls-2" d="M-523.68,737.3a3.92,3.92,0,0,1-3.93,3.9,3.92,3.92,0,0,1-3.93-3.9,3.92,3.92,0,0,1,3.93-3.9,3.92,3.92,0,0,1,3.93,3.9"/></clipPath><clipPath id="clip-path-34"><path class="cls-2" d="M-511.88,737.3a3.92,3.92,0,0,1-3.93,3.9,3.92,3.92,0,0,1-3.93-3.9,3.92,3.92,0,0,1,3.93-3.9,3.92,3.92,0,0,1,3.93,3.9"/></clipPath><clipPath id="clip-path-35"><rect class="cls-1" x="-547.29" y="745.09" width="9.18" height="59.75"/></clipPath><clipPath id="clip-path-36"><path class="cls-2" d="M-542,752.88a1.3,1.3,0,0,0,1.31-1.3,1.3,1.3,0,0,0-1.31-1.3h-1.31a1.3,1.3,0,0,0-1.31,1.3,1.3,1.3,0,0,0,1.31,1.3Z"/></clipPath><clipPath id="clip-path-37"><path class="cls-2" d="M-542,755.48h-1.31a1.3,1.3,0,0,0-1.31,1.3,1.3,1.3,0,0,0,1.31,1.3H-542a1.3,1.3,0,0,0,1.31-1.3,1.3,1.3,0,0,0-1.31-1.3"/></clipPath><clipPath id="clip-path-38"><path class="cls-2" d="M-542,760.67h-1.31a1.3,1.3,0,0,0-1.31,1.3,1.3,1.3,0,0,0,1.31,1.3H-542a1.3,1.3,0,0,0,1.31-1.3,1.3,1.3,0,0,0-1.31-1.3"/></clipPath><clipPath id="clip-path-39"><path class="cls-2" d="M-542,765.87h-1.31a1.3,1.3,0,0,0-1.31,1.3,1.3,1.3,0,0,0,1.31,1.3H-542a1.3,1.3,0,0,0,1.31-1.3,1.3,1.3,0,0,0-1.31-1.3"/></clipPath><clipPath id="clip-path-40"><path class="cls-2" d="M-542,771.07h-1.31a1.3,1.3,0,0,0-1.31,1.3,1.3,1.3,0,0,0,1.31,1.3H-542a1.3,1.3,0,0,0,1.31-1.3,1.3,1.3,0,0,0-1.31-1.3"/></clipPath><clipPath id="clip-path-41"><path class="cls-2" d="M-542,776.26h-1.31a1.3,1.3,0,0,0-1.31,1.3,1.3,1.3,0,0,0,1.31,1.3H-542a1.3,1.3,0,0,0,1.31-1.3,1.3,1.3,0,0,0-1.31-1.3"/></clipPath><clipPath id="clip-path-42"><path class="cls-2" d="M-542,781.46h-1.31a1.3,1.3,0,0,0-1.31,1.3,1.3,1.3,0,0,0,1.31,1.3H-542a1.3,1.3,0,0,0,1.31-1.3,1.3,1.3,0,0,0-1.31-1.3"/></clipPath><clipPath id="clip-path-43"><path class="cls-2" d="M-542,786.65h-1.31a1.3,1.3,0,0,0-1.31,1.3,1.3,1.3,0,0,0,1.31,1.3H-542a1.3,1.3,0,0,0,1.31-1.3,1.3,1.3,0,0,0-1.31-1.3"/></clipPath><clipPath id="clip-path-44"><path class="cls-2" d="M-542,791.85h-1.31a1.3,1.3,0,0,0-1.31,1.3,1.3,1.3,0,0,0,1.31,1.3H-542a1.3,1.3,0,0,0,1.31-1.3,1.3,1.3,0,0,0-1.31-1.3"/></clipPath><clipPath id="clip-path-45"><path class="cls-2" d="M-542,797h-1.31a1.3,1.3,0,0,0-1.31,1.3,1.3,1.3,0,0,0,1.31,1.3H-542a1.3,1.3,0,0,0,1.31-1.3A1.3,1.3,0,0,0-542,797"/></clipPath><clipPath id="clip-path-46"><path class="cls-2" d="M-504.57,778.48h-.38c-6.51,0-11.78-5-11.78-11.15s5.28-11.15,11.78-11.15,11.78,5,11.78,11.15a10.81,10.81,0,0,1-3.41,7.84l-8,9.46Z"/></clipPath><clipPath id="clip-path-47"><path class="cls-2" d="M-486.46,789.43h.48c8.36,0,15.14-6.41,15.14-14.32s-6.78-14.32-15.14-14.32-15.14,6.41-15.14,14.32a13.89,13.89,0,0,0,4.38,10.07l10.27,12.15Z"/></clipPath><clipPath id="clip-path-48"><ellipse class="cls-1" cx="-491.34" cy="775.59" rx="1.95" ry="1.85"/></clipPath><clipPath id="clip-path-49"><ellipse class="cls-1" cx="-485.48" cy="775.59" rx="1.95" ry="1.85"/></clipPath><clipPath id="clip-path-50"><ellipse class="cls-1" cx="-479.63" cy="775.59" rx="1.95" ry="1.85"/></clipPath><clipPath id="clip-path-51"><ellipse class="cls-1" cx="-350.02" cy="124.57" rx="33.84" ry="33.92"/></clipPath><clipPath id="clip-path-52"><path class="cls-2" d="M-341.83,117.09a1.27,1.27,0,0,1,1.27-1.28h6.08a1.28,1.28,0,0,1,1.27,1.28v21a1.27,1.27,0,0,1-1.27,1.28h-6.08a1.28,1.28,0,0,1-1.27-1.28Z"/></clipPath><clipPath id="clip-path-53"><rect class="cls-1" x="-363.86" y="130.69" width="8.62" height="8.64" rx="1.27" ry="1.27"/></clipPath><clipPath id="clip-path-54"><path class="cls-2" d="M-352.85,124.78a1.27,1.27,0,0,1,1.27-1.28h6.08a1.27,1.27,0,0,1,1.27,1.28v13.27a1.27,1.27,0,0,1-1.27,1.28h-6.08a1.27,1.27,0,0,1-1.27-1.28Z"/></clipPath><clipPath id="clip-path-55"><ellipse class="cls-1" cx="-349.63" cy="204.15" rx="33.84" ry="33.92"/></clipPath><clipPath id="clip-path-56"><ellipse class="cls-1" cx="-336.21" cy="211.51" rx="9.26" ry="9.28"/></clipPath><clipPath id="clip-path-57"><polygon class="cls-2" points="-337.48 213.68 -340.25 210.76 -341.47 212.02 -337.48 216.19 -329.98 208.49 -331.19 207.23 -337.48 213.68"/></clipPath><clipPath id="clip-path-59"><path class="cls-2" d="M-354.9,200.85a7.36,7.36,0,0,1-2.23-5.3,7.25,7.25,0,0,1,7.19-7.32,7.25,7.25,0,0,1,7.19,7.32,7.36,7.36,0,0,1-2.1,5.17A13.88,13.88,0,0,1-336,213.83h-27.45A13.91,13.91,0,0,1-354.9,200.85Z"/></clipPath><clipPath id="clip-path-62"><circle class="cls-1" cx="-242.36" cy="40.01" r="34"/></clipPath><clipPath id="clip-path-63"><path class="cls-2" d="M-229.53,30.39h-25a1.28,1.28,0,0,0-1.29,1.28V56l3.73-4.84h21.29a1.28,1.28,0,0,0,1.28-1.27Z"/></clipPath><clipPath id="clip-path-64"><rect class="cls-1" x="-250.7" y="43.22" width="16.04" height="1.28"/></clipPath><clipPath id="clip-path-65"><rect class="cls-1" x="-250.7" y="39.37" width="16.04" height="1.28"/></clipPath><clipPath id="clip-path-66"><rect class="cls-1" x="-250.7" y="35.52" width="16.04" height="1.28"/></clipPath><clipPath id="clip-path-67"><circle class="cls-1" cx="-230.18" cy="29.1" r="5.13"/></clipPath><clipPath id="clip-path-68"><ellipse class="cls-1" cx="-243.95" cy="124.14" rx="33.84" ry="33.92"/></clipPath><clipPath id="clip-path-69"><path class="cls-2" d="M-235.79,116.5a1.27,1.27,0,0,1,1.27-1.28h6.08a1.28,1.28,0,0,1,1.27,1.28v21a1.27,1.27,0,0,1-1.27,1.28h-6.08a1.28,1.28,0,0,1-1.27-1.28Z"/></clipPath><clipPath id="clip-path-70"><rect class="cls-1" x="-257.79" y="130.22" width="8.62" height="8.64" rx="1.27" ry="1.27"/></clipPath><clipPath id="clip-path-71"><path class="cls-2" d="M-246.79,124.5a1.27,1.27,0,0,1,1.27-1.28h6.08a1.27,1.27,0,0,1,1.27,1.28v13.27a1.27,1.27,0,0,1-1.27,1.28h-6.08a1.27,1.27,0,0,1-1.27-1.28Z"/></clipPath><clipPath id="clip-path-72"><path class="cls-2" d="M-249,200.32a7.36,7.36,0,0,1-2.23-5.3A7.25,7.25,0,0,1-244,187.7a7.25,7.25,0,0,1,7.19,7.32,7.36,7.36,0,0,1-2.1,5.17,13.88,13.88,0,0,1,8.85,13.11h-27.45A13.91,13.91,0,0,1-249,200.32Z"/></clipPath><clipPath id="clip-path-73"><ellipse class="cls-1" cx="-230.26" cy="210.98" rx="9.26" ry="9.28"/></clipPath><clipPath id="clip-path-74"><polygon class="cls-2" points="-231.53 213.15 -234.3 210.23 -235.52 211.49 -231.53 215.66 -224.03 207.96 -225.25 206.7 -231.53 213.15"/></clipPath><clipPath id="clip-path-75"><circle class="cls-1" cx="36.83" cy="36.83" r="35.5"/></clipPath><clipPath id="clip-path-76"><path class="cls-2" d="M15.33,17.34a1,1,0,0,1,1-1h40a1,1,0,0,1,1,1v35a1,1,0,0,1-1,1h-40a1,1,0,0,1-1-1Z"/></clipPath><clipPath id="clip-path-77"><circle class="cls-1" cx="19.33" cy="19.33" r="1"/></clipPath><clipPath id="clip-path-78"><circle class="cls-1" cx="22.33" cy="19.33" r="1"/></clipPath><clipPath id="clip-path-79"><circle class="cls-1" cx="25.33" cy="19.33" r="1"/></clipPath><clipPath id="clip-path-80"><rect class="cls-1" x="16.33" y="22.33" width="40" height="32"/></clipPath></defs><title>Artboard 36</title><g class="cls-75"><rect class="cls-76" x="-3.67" y="-3.67" width="81" height="81"/></g><circle class="cls-77" cx="36.83" cy="36.83" r="35.5"/><g class="cls-78"><rect class="cls-76" x="10.33" y="11.33" width="52" height="47"/></g><path class="cls-77" d="M15.33,17.34a1,1,0,0,1,1-1h40a1,1,0,0,1,1,1v35a1,1,0,0,1-1,1h-40a1,1,0,0,1-1-1Z"/><line class="cls-79" x1="15.83" y1="22.33" x2="57.34" y2="22.33"/><g class="cls-80"><rect class="cls-81" x="13.33" y="13.33" width="12" height="12"/></g><g class="cls-82"><rect class="cls-81" x="16.33" y="13.33" width="12" height="12"/></g><g class="cls-83"><rect class="cls-81" x="19.33" y="13.33" width="12" height="12"/></g><line class="cls-79" x1="29.33" y1="16.83" x2="29.33" y2="22.36"/><g class="cls-84"><rect class="cls-81" x="11.33" y="17.33" width="50" height="42"/></g><line class="cls-85" x1="19.83" y1="27.33" x2="30.33" y2="27.33"/><line class="cls-85" x1="19.83" y1="31.33" x2="35.33" y2="31.33"/><line class="cls-85" x1="19.83" y1="35.33" x2="24.44" y2="35.33"/><line class="cls-85" x1="28.83" y1="35.33" x2="31.33" y2="35.33"/><line class="cls-85" x1="38.83" y1="31.33" x2="43.33" y2="31.33"/><line class="cls-85" x1="46.83" y1="31.33" x2="51.33" y2="31.33"/><line class="cls-85" x1="33.83" y1="27.33" x2="41.35" y2="27.33"/></svg>